<mxfile host="app.diagrams.net" agent="Mozilla/5.0 (Windows NT 10.0; Win64; x64; rv:131.0) Gecko/20100101 Firefox/131.0" version="24.7.17">
  <diagram name="1 oldal" id="vp-TNxYPQvpUIjnWBvbC">
    <mxGraphModel dx="1674" dy="782" grid="1" gridSize="10" guides="1" tooltips="1" connect="1" arrows="1" fold="1" page="1" pageScale="1" pageWidth="827" pageHeight="1169" math="0" shadow="0">
      <root>
        <mxCell id="0" />
        <mxCell id="1" parent="0" />
        <mxCell id="sRuLr5Mfcc7FrkirvZKA-33" style="edgeStyle=orthogonalEdgeStyle;rounded=0;orthogonalLoop=1;jettySize=auto;html=1;entryX=0.57;entryY=0.033;entryDx=0;entryDy=0;entryPerimeter=0;" edge="1" parent="1" source="sRuLr5Mfcc7FrkirvZKA-1" target="sRuLr5Mfcc7FrkirvZKA-4">
          <mxGeometry relative="1" as="geometry">
            <mxPoint x="331.03999999999996" y="370" as="targetPoint" />
          </mxGeometry>
        </mxCell>
        <mxCell id="sRuLr5Mfcc7FrkirvZKA-34" value="N" style="edgeLabel;html=1;align=center;verticalAlign=middle;resizable=0;points=[];" vertex="1" connectable="0" parent="sRuLr5Mfcc7FrkirvZKA-33">
          <mxGeometry x="0.7144" y="2" relative="1" as="geometry">
            <mxPoint as="offset" />
          </mxGeometry>
        </mxCell>
        <mxCell id="sRuLr5Mfcc7FrkirvZKA-35" value="1" style="edgeLabel;html=1;align=center;verticalAlign=middle;resizable=0;points=[];" vertex="1" connectable="0" parent="sRuLr5Mfcc7FrkirvZKA-33">
          <mxGeometry x="-0.8195" y="2" relative="1" as="geometry">
            <mxPoint as="offset" />
          </mxGeometry>
        </mxCell>
        <mxCell id="sRuLr5Mfcc7FrkirvZKA-1" value="&lt;div style=&quot;font-size: 14px;&quot;&gt;&lt;font style=&quot;font-size: 14px;&quot;&gt;Id&lt;br&gt;&lt;/font&gt;&lt;/div&gt;&lt;div style=&quot;font-size: 14px;&quot;&gt;&lt;font style=&quot;font-size: 14px;&quot;&gt;Name&lt;/font&gt;&lt;/div&gt;&lt;div style=&quot;font-size: 14px;&quot;&gt;&lt;font style=&quot;font-size: 14px;&quot;&gt;Location&lt;/font&gt;&lt;/div&gt;&lt;div style=&quot;font-size: 14px;&quot;&gt;&lt;font style=&quot;font-size: 14px;&quot;&gt;CardNumber&lt;/font&gt;&lt;/div&gt;&lt;div style=&quot;font-size: 14px;&quot;&gt;&lt;font style=&quot;font-size: 14px;&quot;&gt;MemberSince&lt;/font&gt;&lt;/div&gt;&lt;div style=&quot;font-size: 14px;&quot;&gt;&lt;font style=&quot;font-size: 14px;&quot;&gt;MemberUntil&lt;br&gt;&lt;/font&gt;&lt;/div&gt;" style="rounded=0;whiteSpace=wrap;html=1;" vertex="1" parent="1">
          <mxGeometry x="271.04" y="140" width="120" height="110" as="geometry" />
        </mxCell>
        <mxCell id="sRuLr5Mfcc7FrkirvZKA-2" value="&lt;font style=&quot;font-size: 16px;&quot;&gt;Members&lt;/font&gt;" style="rounded=0;whiteSpace=wrap;html=1;" vertex="1" parent="1">
          <mxGeometry x="271.04" y="110" width="120" height="30" as="geometry" />
        </mxCell>
        <mxCell id="sRuLr5Mfcc7FrkirvZKA-3" value="&lt;div style=&quot;font-size: 14px;&quot;&gt;&lt;font style=&quot;font-size: 14px;&quot;&gt;RingNumber(Id)&lt;/font&gt;&lt;/div&gt;&lt;div style=&quot;font-size: 14px;&quot;&gt;&lt;font style=&quot;font-size: 14px;&quot;&gt;Classification&lt;/font&gt;&lt;/div&gt;&lt;div style=&quot;font-size: 14px;&quot;&gt;&lt;font style=&quot;font-size: 14px;&quot;&gt;RingerName&lt;/font&gt;&lt;/div&gt;&lt;div style=&quot;font-size: 14px;&quot;&gt;&lt;font style=&quot;font-size: 14px;&quot;&gt;RingingDate&lt;/font&gt;&lt;/div&gt;&lt;div style=&quot;font-size: 14px;&quot;&gt;&lt;font style=&quot;font-size: 14px;&quot;&gt;RingingLocation&lt;br&gt;&lt;/font&gt;&lt;/div&gt;" style="rounded=0;whiteSpace=wrap;html=1;" vertex="1" parent="1">
          <mxGeometry x="264.6" y="410" width="120" height="100" as="geometry" />
        </mxCell>
        <mxCell id="sRuLr5Mfcc7FrkirvZKA-4" value="&lt;font style=&quot;font-size: 16px;&quot;&gt;Birds&lt;/font&gt;" style="rounded=0;whiteSpace=wrap;html=1;" vertex="1" parent="1">
          <mxGeometry x="264.6" y="380" width="120" height="30" as="geometry" />
        </mxCell>
        <mxCell id="sRuLr5Mfcc7FrkirvZKA-5" value="&lt;div style=&quot;font-size: 14px;&quot;&gt;&lt;font style=&quot;font-size: 14px;&quot;&gt;Id&lt;br&gt;&lt;/font&gt;&lt;/div&gt;&lt;div style=&quot;font-size: 14px;&quot;&gt;&lt;font style=&quot;font-size: 14px;&quot;&gt;Species&lt;/font&gt;&lt;/div&gt;&lt;div style=&quot;font-size: 14px;&quot;&gt;&lt;font style=&quot;font-size: 14px;&quot;&gt;Class&lt;/font&gt;&lt;/div&gt;&lt;div style=&quot;font-size: 14px;&quot;&gt;&lt;font style=&quot;font-size: 14px;&quot;&gt;Subclass&lt;/font&gt;&lt;/div&gt;&lt;div style=&quot;font-size: 14px;&quot;&gt;&lt;font style=&quot;font-size: 14px;&quot;&gt;Tribe&lt;/font&gt;&lt;/div&gt;" style="rounded=0;whiteSpace=wrap;html=1;" vertex="1" parent="1">
          <mxGeometry x="555.5" y="410" width="120" height="100" as="geometry" />
        </mxCell>
        <mxCell id="sRuLr5Mfcc7FrkirvZKA-6" value="&lt;div style=&quot;font-size: 13px;&quot;&gt;&lt;font style=&quot;font-size: 16px;&quot;&gt;Classification&lt;/font&gt;&lt;/div&gt;" style="rounded=0;whiteSpace=wrap;html=1;" vertex="1" parent="1">
          <mxGeometry x="555.5" y="380" width="120" height="30" as="geometry" />
        </mxCell>
        <mxCell id="sRuLr5Mfcc7FrkirvZKA-7" value="" style="endArrow=none;html=1;rounded=0;entryX=0.002;entryY=0.146;entryDx=0;entryDy=0;entryPerimeter=0;exitX=1;exitY=0.35;exitDx=0;exitDy=0;exitPerimeter=0;edgeStyle=orthogonalEdgeStyle;" edge="1" parent="1" source="sRuLr5Mfcc7FrkirvZKA-3" target="sRuLr5Mfcc7FrkirvZKA-5">
          <mxGeometry width="50" height="50" relative="1" as="geometry">
            <mxPoint x="380.6" y="470" as="sourcePoint" />
            <mxPoint x="430.6" y="420" as="targetPoint" />
          </mxGeometry>
        </mxCell>
        <mxCell id="sRuLr5Mfcc7FrkirvZKA-8" value="N" style="edgeLabel;html=1;align=center;verticalAlign=middle;resizable=0;points=[];" vertex="1" connectable="0" parent="sRuLr5Mfcc7FrkirvZKA-7">
          <mxGeometry x="-0.8947" relative="1" as="geometry">
            <mxPoint as="offset" />
          </mxGeometry>
        </mxCell>
        <mxCell id="sRuLr5Mfcc7FrkirvZKA-9" value="1" style="edgeLabel;html=1;align=center;verticalAlign=middle;resizable=0;points=[];" vertex="1" connectable="0" parent="sRuLr5Mfcc7FrkirvZKA-7">
          <mxGeometry x="0.8698" y="-1" relative="1" as="geometry">
            <mxPoint as="offset" />
          </mxGeometry>
        </mxCell>
        <mxCell id="sRuLr5Mfcc7FrkirvZKA-10" value="&lt;div style=&quot;font-size: 14px;&quot;&gt;&lt;font style=&quot;font-size: 14px;&quot;&gt;PostalCode&lt;/font&gt;&lt;/div&gt;&lt;div style=&quot;font-size: 14px;&quot;&gt;&lt;font style=&quot;font-size: 14px;&quot;&gt;Name&lt;/font&gt;&lt;/div&gt;&lt;div style=&quot;font-size: 14px;&quot;&gt;&lt;font style=&quot;font-size: 14px;&quot;&gt;StreetName&lt;/font&gt;&lt;/div&gt;&lt;div style=&quot;font-size: 14px;&quot;&gt;&lt;font style=&quot;font-size: 14px;&quot;&gt;HouseNumber&lt;br&gt;&lt;/font&gt;&lt;/div&gt;" style="rounded=0;whiteSpace=wrap;html=1;" vertex="1" parent="1">
          <mxGeometry x="90" y="170" width="120" height="80" as="geometry" />
        </mxCell>
        <mxCell id="sRuLr5Mfcc7FrkirvZKA-11" value="&lt;font style=&quot;font-size: 16px;&quot;&gt;Location&lt;/font&gt;" style="rounded=0;whiteSpace=wrap;html=1;" vertex="1" parent="1">
          <mxGeometry x="90" y="140" width="120" height="30" as="geometry" />
        </mxCell>
        <mxCell id="sRuLr5Mfcc7FrkirvZKA-15" value="" style="endArrow=none;html=1;rounded=0;entryX=0;entryY=0.4;entryDx=0;entryDy=0;entryPerimeter=0;exitX=1.008;exitY=0.15;exitDx=0;exitDy=0;exitPerimeter=0;edgeStyle=orthogonalEdgeStyle;" edge="1" parent="1" source="sRuLr5Mfcc7FrkirvZKA-10" target="sRuLr5Mfcc7FrkirvZKA-1">
          <mxGeometry width="50" height="50" relative="1" as="geometry">
            <mxPoint x="240" y="290" as="sourcePoint" />
            <mxPoint x="290" y="240" as="targetPoint" />
          </mxGeometry>
        </mxCell>
        <mxCell id="sRuLr5Mfcc7FrkirvZKA-17" value="1" style="edgeLabel;html=1;align=center;verticalAlign=middle;resizable=0;points=[];" vertex="1" connectable="0" parent="sRuLr5Mfcc7FrkirvZKA-15">
          <mxGeometry x="-0.7317" y="3" relative="1" as="geometry">
            <mxPoint as="offset" />
          </mxGeometry>
        </mxCell>
        <mxCell id="sRuLr5Mfcc7FrkirvZKA-18" value="N" style="edgeLabel;html=1;align=center;verticalAlign=middle;resizable=0;points=[];" vertex="1" connectable="0" parent="sRuLr5Mfcc7FrkirvZKA-15">
          <mxGeometry x="0.8111" relative="1" as="geometry">
            <mxPoint as="offset" />
          </mxGeometry>
        </mxCell>
        <mxCell id="sRuLr5Mfcc7FrkirvZKA-19" value="&lt;div style=&quot;font-size: 14px;&quot;&gt;&lt;font style=&quot;font-size: 14px;&quot;&gt;Id&lt;br&gt;&lt;/font&gt;&lt;/div&gt;&lt;div style=&quot;font-size: 14px;&quot;&gt;&lt;font style=&quot;font-size: 14px;&quot;&gt;Member&lt;/font&gt;&lt;/div&gt;&lt;div style=&quot;font-size: 14px;&quot;&gt;&lt;font style=&quot;font-size: 14px;&quot;&gt;Location&lt;br&gt;&lt;/font&gt;&lt;/div&gt;&lt;div style=&quot;font-size: 14px;&quot;&gt;&lt;font style=&quot;font-size: 14px;&quot;&gt;Date&lt;/font&gt;&lt;/div&gt;&lt;div style=&quot;font-size: 14px;&quot;&gt;&lt;font style=&quot;font-size: 14px;&quot;&gt;Bird&lt;br&gt;&lt;/font&gt;&lt;/div&gt;" style="rounded=0;whiteSpace=wrap;html=1;" vertex="1" parent="1">
          <mxGeometry x="555.5" y="270" width="120" height="100" as="geometry" />
        </mxCell>
        <mxCell id="sRuLr5Mfcc7FrkirvZKA-20" value="&lt;font style=&quot;font-size: 16px;&quot;&gt;Watching&lt;/font&gt;" style="rounded=0;whiteSpace=wrap;html=1;" vertex="1" parent="1">
          <mxGeometry x="555.5" y="240" width="120" height="30" as="geometry" />
        </mxCell>
        <mxCell id="sRuLr5Mfcc7FrkirvZKA-21" value="" style="endArrow=none;html=1;rounded=0;exitX=0.992;exitY=0.14;exitDx=0;exitDy=0;exitPerimeter=0;entryX=0.008;entryY=0.89;entryDx=0;entryDy=0;entryPerimeter=0;edgeStyle=orthogonalEdgeStyle;" edge="1" parent="1" source="sRuLr5Mfcc7FrkirvZKA-3" target="sRuLr5Mfcc7FrkirvZKA-19">
          <mxGeometry width="50" height="50" relative="1" as="geometry">
            <mxPoint x="410" y="350" as="sourcePoint" />
            <mxPoint x="460" y="320" as="targetPoint" />
            <Array as="points">
              <mxPoint x="410" y="424" />
              <mxPoint x="410" y="359" />
            </Array>
          </mxGeometry>
        </mxCell>
        <mxCell id="sRuLr5Mfcc7FrkirvZKA-22" value="N" style="edgeLabel;html=1;align=center;verticalAlign=middle;resizable=0;points=[];" vertex="1" connectable="0" parent="sRuLr5Mfcc7FrkirvZKA-21">
          <mxGeometry x="-0.8552" y="-1" relative="1" as="geometry">
            <mxPoint as="offset" />
          </mxGeometry>
        </mxCell>
        <mxCell id="sRuLr5Mfcc7FrkirvZKA-23" value="N" style="edgeLabel;html=1;align=center;verticalAlign=middle;resizable=0;points=[];" vertex="1" connectable="0" parent="sRuLr5Mfcc7FrkirvZKA-21">
          <mxGeometry x="0.9004" y="-1" relative="1" as="geometry">
            <mxPoint as="offset" />
          </mxGeometry>
        </mxCell>
        <mxCell id="sRuLr5Mfcc7FrkirvZKA-24" value="" style="endArrow=none;html=1;rounded=0;entryX=0.008;entryY=0.35;entryDx=0;entryDy=0;entryPerimeter=0;exitX=1;exitY=0.25;exitDx=0;exitDy=0;edgeStyle=orthogonalEdgeStyle;" edge="1" parent="1" source="sRuLr5Mfcc7FrkirvZKA-1" target="sRuLr5Mfcc7FrkirvZKA-19">
          <mxGeometry width="50" height="50" relative="1" as="geometry">
            <mxPoint x="380" y="100" as="sourcePoint" />
            <mxPoint x="430" y="50" as="targetPoint" />
          </mxGeometry>
        </mxCell>
        <mxCell id="sRuLr5Mfcc7FrkirvZKA-25" value="N" style="edgeLabel;html=1;align=center;verticalAlign=middle;resizable=0;points=[];" vertex="1" connectable="0" parent="sRuLr5Mfcc7FrkirvZKA-24">
          <mxGeometry x="0.9085" y="-1" relative="1" as="geometry">
            <mxPoint as="offset" />
          </mxGeometry>
        </mxCell>
        <mxCell id="sRuLr5Mfcc7FrkirvZKA-31" value="N" style="edgeLabel;html=1;align=center;verticalAlign=middle;resizable=0;points=[];" vertex="1" connectable="0" parent="sRuLr5Mfcc7FrkirvZKA-24">
          <mxGeometry x="-0.8895" y="3" relative="1" as="geometry">
            <mxPoint as="offset" />
          </mxGeometry>
        </mxCell>
      </root>
    </mxGraphModel>
  </diagram>
</mxfile>
